<svg width="16" height="16" viewBox="0 0 16 16" fill="none" xmlns="http://www.w3.org/2000/svg">
<g id="fluent:chat-16-filled">
<path id="Vector" d="M7.99995 2C6.959 1.99965 5.93586 2.27012 5.03108 2.78485C4.12629 3.29957 3.37098 4.04083 2.83937 4.9358C2.30776 5.83077 2.01813 6.84864 1.99894 7.88942C1.97976 8.93019 2.23168 9.95805 2.72994 10.872L2.01994 13.362C1.99496 13.4494 1.9943 13.542 2.01802 13.6298C2.04174 13.7176 2.08896 13.7972 2.15458 13.8602C2.2202 13.9231 2.30175 13.967 2.39045 13.9871C2.47914 14.0071 2.57162 14.0026 2.65794 13.974L4.99594 13.195C5.7928 13.6555 6.68491 13.9265 7.60326 13.987C8.5216 14.0475 9.44157 13.896 10.292 13.5441C11.1424 13.1922 11.9005 12.6494 12.5075 11.9577C13.1146 11.266 13.5544 10.4439 13.7929 9.555C14.0315 8.6661 14.0623 7.73425 13.8831 6.83153C13.7038 5.92882 13.3193 5.07943 12.7593 4.34908C12.1993 3.61873 11.4788 3.027 10.6535 2.61967C9.82822 2.21233 8.92028 2.00031 7.99995 2ZM5.99995 7C5.99995 6.86739 6.05262 6.74022 6.14639 6.64645C6.24016 6.55268 6.36734 6.5 6.49995 6.5H9.49995C9.63255 6.5 9.75973 6.55268 9.8535 6.64645C9.94727 6.74022 9.99994 6.86739 9.99994 7C9.99994 7.13261 9.94727 7.25979 9.8535 7.35355C9.75973 7.44732 9.63255 7.5 9.49995 7.5H6.49995C6.36734 7.5 6.24016 7.44732 6.14639 7.35355C6.05262 7.25979 5.99995 7.13261 5.99995 7ZM6.49995 8.5H8.49995C8.63255 8.5 8.75973 8.55268 8.8535 8.64645C8.94727 8.74021 8.99995 8.86739 8.99995 9C8.99995 9.13261 8.94727 9.25979 8.8535 9.35355C8.75973 9.44732 8.63255 9.5 8.49995 9.5H6.49995C6.36734 9.5 6.24016 9.44732 6.14639 9.35355C6.05262 9.25979 5.99995 9.13261 5.99995 9C5.99995 8.86739 6.05262 8.74021 6.14639 8.64645C6.24016 8.55268 6.36734 8.5 6.49995 8.5Z" fill="black"/>
</g>
</svg>
