<svg width="17" height="17" viewBox="0 0 17 17" fill="none" xmlns="http://www.w3.org/2000/svg">
<g id="system-uicons:bell">
<path id="Vector" d="M10.5238 13.7619C9.98388 14.5714 9.30954 14.9762 8.50002 14.9762C7.6905 14.9762 7.01616 14.5714 6.47621 13.7619M12.6164 12.5476H4.38359C4.14708 12.5477 3.91478 12.485 3.71043 12.366C3.50609 12.2469 3.33702 12.0757 3.22052 11.8698C3.10402 11.664 3.04426 11.4309 3.04736 11.1944C3.05045 10.9579 3.11628 10.7265 3.23812 10.5238C4.03261 9.19964 4.45232 7.68446 4.4524 6.14023V5.2619C4.4524 4.4031 4.79356 3.57948 5.40082 2.97222C6.00808 2.36496 6.8317 2.0238 7.6905 2.0238H9.30954C10.1683 2.0238 10.992 2.36496 11.5992 2.97222C12.2065 3.57948 12.5476 4.4031 12.5476 5.2619V6.14023C12.5476 7.68399 12.967 9.20023 13.7619 10.5238C13.8838 10.7265 13.9496 10.9579 13.9527 11.1944C13.9558 11.4309 13.896 11.664 13.7795 11.8698C13.663 12.0757 13.494 12.2469 13.2896 12.366C13.0853 12.485 12.853 12.5477 12.6164 12.5476Z" stroke="black" stroke-linecap="round" stroke-linejoin="round"/>
</g>
</svg>
