<svg width="16" height="16" viewBox="0 0 16 16" fill="none" xmlns="http://www.w3.org/2000/svg">
<g id="tdesign:member">
<path id="Vector" d="M3.66667 4.66666C3.66667 4.40402 3.7184 4.14395 3.81891 3.90129C3.91942 3.65864 4.06674 3.43817 4.25245 3.25245C4.43817 3.06673 4.65865 2.91941 4.9013 2.8189C5.14395 2.71839 5.40402 2.66666 5.66667 2.66666C5.92931 2.66666 6.18938 2.71839 6.43203 2.8189C6.67468 2.91941 6.89516 3.06673 7.08088 3.25245C7.2666 3.43817 7.41392 3.65864 7.51443 3.90129C7.61494 4.14395 7.66667 4.40402 7.66667 4.66666C7.66667 5.19709 7.45595 5.7058 7.08088 6.08088C6.70581 6.45595 6.1971 6.66666 5.66667 6.66666C5.13623 6.66666 4.62753 6.45595 4.25245 6.08088C3.87738 5.7058 3.66667 5.19709 3.66667 4.66666ZM5.66667 1.33333C4.78261 1.33333 3.93477 1.68452 3.30964 2.30964C2.68452 2.93476 2.33333 3.78261 2.33333 4.66666C2.33333 5.55072 2.68452 6.39856 3.30964 7.02368C3.93477 7.64881 4.78261 8 5.66667 8C6.55072 8 7.39857 7.64881 8.02369 7.02368C8.64881 6.39856 9 5.55072 9 4.66666C9 3.78261 8.64881 2.93476 8.02369 2.30964C7.39857 1.68452 6.55072 1.33333 5.66667 1.33333ZM10.3333 1.33333H9.66667V2.66666H10.3333C10.596 2.66666 10.856 2.71839 11.0987 2.8189C11.3414 2.91941 11.5618 3.06673 11.7475 3.25245C11.9333 3.43817 12.0806 3.65864 12.1811 3.90129C12.2816 4.14395 12.3333 4.40402 12.3333 4.66666C12.3333 4.92931 12.2816 5.18938 12.1811 5.43203C12.0806 5.67468 11.9333 5.89516 11.7475 6.08088C11.5618 6.26659 11.3414 6.41391 11.0987 6.51442C10.856 6.61493 10.596 6.66666 10.3333 6.66666H9.66667V8H10.3333C11.2174 8 12.0652 7.64881 12.6904 7.02368C13.3155 6.39856 13.6667 5.55072 13.6667 4.66666C13.6667 3.78261 13.3155 2.93476 12.6904 2.30964C12.0652 1.68452 11.2174 1.33333 10.3333 1.33333ZM0 12.6667C0 11.7826 0.351189 10.9348 0.976311 10.3096C1.60143 9.68452 2.44928 9.33333 3.33333 9.33333H8C8.88406 9.33333 9.7319 9.68452 10.357 10.3096C10.9821 10.9348 11.3333 11.7826 11.3333 12.6667V14H10V12.6667C10 12.1362 9.78929 11.6275 9.41421 11.2524C9.03914 10.8774 8.53043 10.6667 8 10.6667H3.33333C2.8029 10.6667 2.29419 10.8774 1.91912 11.2524C1.54405 11.6275 1.33333 12.1362 1.33333 12.6667V14H0V12.6667ZM16 12.6667C16 12.2289 15.9138 11.7955 15.7463 11.3911C15.5787 10.9866 15.3332 10.6192 15.0237 10.3096C14.7142 10.0001 14.3467 9.75458 13.9423 9.58706C13.5379 9.41955 13.1044 9.33333 12.6667 9.33333H12V10.6667H12.6667C13.1971 10.6667 13.7058 10.8774 14.0809 11.2524C14.456 11.6275 14.6667 12.1362 14.6667 12.6667V14H16V12.6667Z" fill="black"/>
</g>
</svg>
