<svg width="14" height="14" viewBox="0 0 14 14" fill="none" xmlns="http://www.w3.org/2000/svg">
<g id="mdi:art" clip-path="url(#clip0_58_3826)">
<path id="Vector" d="M11.4593 6.53333C11.1705 6.53333 10.8935 6.41861 10.6893 6.21441C10.4851 6.0102 10.3704 5.73324 10.3704 5.44444C10.3704 5.15565 10.4851 4.87869 10.6893 4.67448C10.8935 4.47028 11.1705 4.35556 11.4593 4.35556C11.7481 4.35556 12.025 4.47028 12.2292 4.67448C12.4334 4.87869 12.5482 5.15565 12.5482 5.44444C12.5482 5.73324 12.4334 6.0102 12.2292 6.21441C12.025 6.41861 11.7481 6.53333 11.4593 6.53333ZM9.2815 3.62963C8.99271 3.62963 8.71574 3.51491 8.51154 3.3107C8.30733 3.1065 8.19261 2.82953 8.19261 2.54074C8.19261 2.25195 8.30733 1.97499 8.51154 1.77078C8.71574 1.56657 8.99271 1.45185 9.2815 1.45185C9.57029 1.45185 9.84725 1.56657 10.0515 1.77078C10.2557 1.97499 10.3704 2.25195 10.3704 2.54074C10.3704 2.82953 10.2557 3.1065 10.0515 3.3107C9.84725 3.51491 9.57029 3.62963 9.2815 3.62963ZM5.65187 3.62963C5.36308 3.62963 5.08611 3.51491 4.88191 3.3107C4.6777 3.1065 4.56298 2.82953 4.56298 2.54074C4.56298 2.25195 4.6777 1.97499 4.88191 1.77078C5.08611 1.56657 5.36308 1.45185 5.65187 1.45185C5.94066 1.45185 6.21762 1.56657 6.42183 1.77078C6.62604 1.97499 6.74076 2.25195 6.74076 2.54074C6.74076 2.82953 6.62604 3.1065 6.42183 3.3107C6.21762 3.51491 5.94066 3.62963 5.65187 3.62963ZM3.47409 6.53333C3.1853 6.53333 2.90834 6.41861 2.70413 6.21441C2.49992 6.0102 2.3852 5.73324 2.3852 5.44444C2.3852 5.15565 2.49992 4.87869 2.70413 4.67448C2.90834 4.47028 3.1853 4.35556 3.47409 4.35556C3.76288 4.35556 4.03984 4.47028 4.24405 4.67448C4.44826 4.87869 4.56298 5.15565 4.56298 5.44444C4.56298 5.73324 4.44826 6.0102 4.24405 6.21441C4.03984 6.41861 3.76288 6.53333 3.47409 6.53333ZM7.46668 0C5.73394 0 4.07216 0.688331 2.84692 1.91357C1.62168 3.13881 0.93335 4.80059 0.93335 6.53333C0.93335 8.26608 1.62168 9.92786 2.84692 11.1531C4.07216 12.3783 5.73394 13.0667 7.46668 13.0667C7.75547 13.0667 8.03244 12.9519 8.23664 12.7477C8.44085 12.5435 8.55557 12.2666 8.55557 11.9778C8.55557 11.6947 8.44668 11.4406 8.27246 11.2519C8.1055 11.0559 7.99661 10.8018 7.99661 10.5259C7.99661 10.2371 8.11133 9.96017 8.31554 9.75597C8.51974 9.55176 8.79671 9.43704 9.0855 9.43704H10.3704C11.333 9.43704 12.2562 9.05463 12.9369 8.37394C13.6176 7.69326 14 6.77004 14 5.80741C14 2.59881 11.0745 0 7.46668 0Z" fill="#333333"/>
</g>
<defs>
<clipPath id="clip0_58_3826">
<rect width="14" height="14" fill="white"/>
</clipPath>
</defs>
</svg>
